<svg width="38" height="38" viewBox="0 0 38 38" fill="none" xmlns="http://www.w3.org/2000/svg">
<path d="M27.1309 15.6849C27.1305 15.5595 27.1276 15.4348 27.1219 15.3107V8.2337L25.1654 10.1902C23.5642 8.23017 21.1282 6.97827 18.3997 6.97827C15.5603 6.97827 13.0377 8.3336 11.4431 10.4325L14.65 13.6732C14.9643 13.092 15.4108 12.5927 15.9491 12.2157C16.509 11.7788 17.3023 11.4215 18.3996 11.4215C18.5322 11.4215 18.6345 11.437 18.7097 11.4662C20.0694 11.5735 21.2479 12.3239 21.9418 13.413L19.6718 15.683C22.5471 15.6717 25.7952 15.6651 27.1306 15.6844" fill="#1C3AA9"/>
<path d="M18.3488 6.97858C18.2233 6.97899 18.0986 6.98189 17.9745 6.98751H10.8975L12.854 8.944C10.894 10.5453 9.64209 12.9812 9.64209 15.7097C9.64209 18.5492 10.9974 21.0717 13.0964 22.6663L16.337 19.4594C15.7558 19.1451 15.2565 18.6987 14.8795 18.1603C14.4426 17.6005 14.0854 16.8072 14.0854 15.7098C14.0854 15.5772 14.1008 15.4749 14.13 15.3997C14.2373 14.0401 14.9877 12.8616 16.0768 12.1676L18.3468 14.4376C18.3355 11.5624 18.3289 8.31423 18.3483 6.97883" fill="#4285F4"/>
<path d="M9.64233 15.7095C9.64275 15.8349 9.64564 15.9596 9.65127 16.0837V23.1607L11.6078 21.2042C13.209 23.1642 15.645 24.4161 18.3735 24.4161C21.2129 24.4161 23.7355 23.0608 25.3301 20.9619L22.1232 17.7212C21.8089 18.3025 21.3624 18.8017 20.8241 19.1787C20.2642 19.6156 19.4709 19.9729 18.3736 19.9729C18.241 19.9729 18.1387 19.9574 18.0635 19.9282C16.7039 19.8209 15.5253 19.0705 14.8314 17.9815L17.1014 15.7114C14.2261 15.7227 10.978 15.7293 9.64258 15.71" fill="#ABABAB"/>
<path d="M11.1156 27.7975C10.903 27.7975 10.7123 27.8378 10.5436 27.9185C10.3749 27.9973 10.2319 28.1101 10.1146 28.2567C9.99908 28.4034 9.91016 28.5813 9.84782 28.7903C9.78732 28.9974 9.75706 29.2294 9.75706 29.486V30.2258C9.75706 30.4843 9.78732 30.7172 9.84782 30.9243C9.91015 31.1315 9.99816 31.3084 10.1118 31.4551C10.2255 31.6018 10.363 31.7145 10.5243 31.7934C10.6857 31.8722 10.8672 31.9116 11.0689 31.9116C11.2761 31.9116 11.4576 31.8814 11.6134 31.8209C11.7711 31.7604 11.9031 31.6733 12.0094 31.5596C12.1158 31.4441 12.1974 31.3048 12.2542 31.1416C12.3129 30.9784 12.3477 30.7933 12.3587 30.5861H11.8499C11.8371 30.7456 11.8151 30.8822 11.7839 30.9958C11.7527 31.1077 11.7069 31.2003 11.6464 31.2736C11.5877 31.3451 11.5107 31.3983 11.4154 31.4331C11.3219 31.4661 11.2064 31.4826 11.0689 31.4826C10.9222 31.4826 10.7975 31.4505 10.6949 31.3864C10.5922 31.3204 10.5088 31.2305 10.4446 31.1168C10.3823 31.0032 10.3364 30.8702 10.3071 30.7181C10.2796 30.5659 10.2658 30.4018 10.2658 30.2258V29.4805C10.2658 29.2917 10.2823 29.1202 10.3153 28.9662C10.3502 28.8122 10.4024 28.6811 10.4721 28.573C10.5418 28.4648 10.6298 28.3814 10.7361 28.3227C10.8425 28.2622 10.969 28.232 11.1156 28.232C11.2385 28.232 11.3439 28.2503 11.4319 28.287C11.5199 28.3218 11.5932 28.3768 11.6519 28.452C11.7106 28.5253 11.7555 28.6188 11.7867 28.7325C11.8178 28.8461 11.8389 28.9818 11.8499 29.1395H12.3587C12.3495 28.9231 12.3156 28.7316 12.2569 28.5647C12.1983 28.3979 12.1167 28.2576 12.0122 28.1439C11.9077 28.0303 11.7802 27.9441 11.6299 27.8854C11.4814 27.8268 11.31 27.7974 11.1156 27.7974L11.1156 27.7975ZM23.5353 27.7975C23.3226 27.7975 23.1319 27.8378 22.9632 27.9185C22.7946 27.9973 22.6515 28.1101 22.5342 28.2567C22.4187 28.4034 22.3298 28.5813 22.2674 28.7903C22.2069 28.9974 22.1767 29.2294 22.1767 29.486V30.2258C22.1767 30.4843 22.2069 30.7172 22.2674 30.9243C22.3298 31.1315 22.4178 31.3084 22.5315 31.4551C22.6451 31.6018 22.7826 31.7145 22.944 31.7934C23.1053 31.8722 23.2868 31.9116 23.4885 31.9116C23.6957 31.9116 23.8772 31.8814 24.033 31.8209C24.1907 31.7604 24.3227 31.6733 24.429 31.5596C24.5354 31.4441 24.617 31.3048 24.6738 31.1416C24.7325 30.9784 24.7673 30.7933 24.7783 30.5861H24.2696C24.2567 30.7456 24.2347 30.8822 24.2035 30.9958C24.1724 31.1077 24.1265 31.2003 24.066 31.2736C24.0074 31.3451 23.9304 31.3983 23.835 31.4331C23.7415 31.4661 23.626 31.4826 23.4885 31.4826C23.3418 31.4826 23.2172 31.4505 23.1145 31.3864C23.0118 31.3204 22.9284 31.2305 22.8642 31.1168C22.8019 31.0032 22.7561 30.8702 22.7267 30.7181C22.6992 30.5659 22.6855 30.4018 22.6855 30.2258V29.4805C22.6855 29.2917 22.702 29.1202 22.735 28.9662C22.7698 28.8122 22.8221 28.6811 22.8917 28.573C22.9614 28.4648 23.0494 28.3814 23.1557 28.3227C23.2621 28.2622 23.3886 28.232 23.5353 28.232C23.6581 28.232 23.7635 28.2503 23.8515 28.287C23.9395 28.3218 24.0129 28.3768 24.0715 28.452C24.1302 28.5253 24.1751 28.6188 24.2063 28.7325C24.2374 28.8461 24.2585 28.9818 24.2695 29.1395H24.7783C24.7691 28.9231 24.7352 28.7316 24.6765 28.5647C24.6179 28.3979 24.5363 28.2576 24.4318 28.1439C24.3273 28.0303 24.1998 27.9441 24.0495 27.8854C23.901 27.8268 23.7296 27.7974 23.5352 27.7974L23.5353 27.7975ZM14.0144 27.8525L12.7246 31.8566H13.2416L13.5524 30.8116H14.9055L15.2217 31.8566H15.7387L14.4462 27.8525H14.0144ZM16.2832 27.8525V31.8566H16.7865V30.289H17.5592C17.7517 30.289 17.9223 30.2625 18.0708 30.2093C18.2193 30.1543 18.3439 30.0754 18.4448 29.9728C18.5475 29.8701 18.6245 29.7436 18.6758 29.5933C18.7289 29.4411 18.7555 29.2688 18.7555 29.0762C18.7555 28.8984 18.729 28.7352 18.6758 28.5867C18.6244 28.4364 18.5484 28.3071 18.4475 28.1989C18.3467 28.0889 18.2211 28.0037 18.0708 27.9432C17.9223 27.8827 17.7518 27.8524 17.5592 27.8524L16.2832 27.8525ZM19.1405 27.8525V28.287H20.1911V31.8566H20.6944V28.287H21.7476V27.8525H19.1405ZM25.4576 27.8525V31.8566H25.9608V30.0058H27.5724V31.8566H28.0784V27.8525H27.5724V29.5741H25.9608V27.8525H25.4576ZM29.987 27.8525L28.6972 31.8566H29.2142L29.525 30.8116H30.878L31.1943 31.8566H31.7113L30.4188 27.8525H29.987ZM16.7864 28.287H17.5592C17.682 28.287 17.7865 28.309 17.8727 28.353C17.9607 28.397 18.0322 28.4557 18.0872 28.529C18.1441 28.6023 18.1853 28.6876 18.211 28.7848C18.2385 28.8801 18.2522 28.9791 18.2522 29.0818C18.2522 29.1954 18.2385 29.2999 18.211 29.3953C18.1853 29.4888 18.1441 29.5704 18.0872 29.64C18.0322 29.7079 17.9607 29.761 17.8727 29.7996C17.7865 29.8381 17.682 29.8573 17.5592 29.8573H16.7864V28.287ZM14.2289 28.5565L14.7761 30.3771H13.6844L14.2289 28.5565ZM30.2014 28.5565L30.7487 30.3771H29.6569L30.2014 28.5565ZM6.51231 28.826C6.3858 28.826 6.27671 28.8581 6.18504 28.9223C6.0952 28.9864 6.02003 29.0735 5.95953 29.1835L5.95128 28.881H5.47827V31.8566H5.96505V29.728C6.01088 29.6015 6.07597 29.5016 6.1603 29.4282C6.24647 29.3549 6.35556 29.3182 6.48757 29.3182C6.52974 29.3182 6.56733 29.3201 6.60033 29.3237C6.63333 29.3256 6.66908 29.3301 6.70758 29.3374L6.70483 28.8644C6.6975 28.8607 6.68558 28.8571 6.66908 28.8534C6.65441 28.8479 6.63791 28.8433 6.61958 28.8397C6.60124 28.836 6.58199 28.8332 6.56183 28.8314C6.54349 28.8277 6.52699 28.8259 6.51232 28.8259L6.51231 28.826ZM8.14863 28.826C8.00745 28.826 7.87086 28.8508 7.73886 28.9003C7.60686 28.9498 7.48952 29.0314 7.38686 29.145C7.28602 29.2569 7.20443 29.4035 7.1421 29.5851C7.07976 29.7647 7.04859 29.9857 7.04859 30.2478V30.5834C7.04859 30.8107 7.07518 31.0078 7.12835 31.1746C7.18152 31.3415 7.2576 31.4799 7.3566 31.5899C7.45744 31.6981 7.57935 31.7787 7.72237 31.8319C7.86537 31.8851 8.0258 31.9117 8.20364 31.9117C8.33198 31.9117 8.44657 31.8988 8.54741 31.8732C8.65008 31.8475 8.74083 31.8145 8.81967 31.7742C8.89851 31.732 8.96634 31.6843 9.02318 31.6312C9.08001 31.578 9.1286 31.523 9.16893 31.4662L8.91593 31.1581C8.87559 31.2076 8.83251 31.2535 8.78667 31.2956C8.74084 31.336 8.69042 31.3717 8.63542 31.4029C8.58041 31.4322 8.51991 31.4552 8.45391 31.4717C8.38791 31.4881 8.31365 31.4964 8.23115 31.4964C8.00565 31.4964 7.83239 31.424 7.71138 31.2791C7.59221 31.1343 7.53262 30.9024 7.53262 30.5834V30.5146H9.19369V30.2313C9.19369 30.004 9.17444 29.8032 9.13594 29.6291C9.09744 29.4549 9.03602 29.3082 8.95168 29.189C8.86735 29.0699 8.75917 28.98 8.62716 28.9195C8.49515 28.8572 8.33566 28.826 8.14863 28.826L8.14863 28.826ZM8.14863 29.2441C8.25496 29.2441 8.34297 29.2633 8.41265 29.3018C8.48231 29.3403 8.53732 29.3944 8.57765 29.4641C8.61982 29.5337 8.65007 29.6172 8.66841 29.7143C8.68857 29.8097 8.70141 29.9151 8.70691 30.0306V30.0966H7.53536C7.54269 29.9297 7.56286 29.7913 7.59586 29.6813C7.62886 29.5713 7.67195 29.4842 7.72512 29.42C7.78012 29.354 7.84337 29.3082 7.91488 29.2825C7.98638 29.2569 8.0643 29.244 8.14864 29.244L8.14863 29.2441Z" fill="#A6A6A6"/>
</svg>
