<svg width="199" height="44" viewBox="0 0 199 44" fill="none" xmlns="http://www.w3.org/2000/svg">
<g filter="url(#filter0_d_14_115)">
<g clip-path="url(#clip0_14_115)">
<rect x="3" y="2" width="193" height="38" rx="2" fill="#FAFAFA"/>
<rect x="14" y="11" width="20" height="20" rx="2" fill="white"/>
<rect x="14" y="11" width="20" height="20" rx="2" stroke="#C1C1C1" stroke-width="2"/>
<path d="M49.268 16.66V25H47.9V16.66H49.268ZM51.2801 16.66H52.7681L51.5081 19.516H50.5481L51.2801 16.66ZM61.9743 18.28C62.4943 18.28 62.9583 18.388 63.3663 18.604C63.7823 18.82 64.1063 19.14 64.3383 19.564C64.5783 19.988 64.6983 20.5 64.6983 21.1V25H63.3423V21.304C63.3423 20.712 63.1943 20.26 62.8983 19.948C62.6023 19.628 62.1983 19.468 61.6863 19.468C61.1743 19.468 60.7663 19.628 60.4623 19.948C60.1663 20.26 60.0183 20.712 60.0183 21.304V25H58.6623V21.304C58.6623 20.712 58.5143 20.26 58.2183 19.948C57.9223 19.628 57.5183 19.468 57.0063 19.468C56.4943 19.468 56.0863 19.628 55.7823 19.948C55.4863 20.26 55.3383 20.712 55.3383 21.304V25H53.9703V18.388H55.3383V19.144C55.5623 18.872 55.8463 18.66 56.1903 18.508C56.5343 18.356 56.9023 18.28 57.2943 18.28C57.8223 18.28 58.2943 18.392 58.7103 18.616C59.1263 18.84 59.4463 19.164 59.6703 19.588C59.8703 19.188 60.1823 18.872 60.6063 18.64C61.0303 18.4 61.4863 18.28 61.9743 18.28ZM72.8923 18.28C73.4123 18.28 73.8763 18.388 74.2843 18.604C74.7003 18.82 75.0243 19.14 75.2563 19.564C75.4883 19.988 75.6043 20.5 75.6043 21.1V25H74.2483V21.304C74.2483 20.712 74.1003 20.26 73.8043 19.948C73.5083 19.628 73.1043 19.468 72.5923 19.468C72.0803 19.468 71.6723 19.628 71.3683 19.948C71.0723 20.26 70.9243 20.712 70.9243 21.304V25H69.5563V18.388H70.9243V19.144C71.1483 18.872 71.4323 18.66 71.7763 18.508C72.1283 18.356 72.5003 18.28 72.8923 18.28ZM80.2172 25.108C79.5932 25.108 79.0292 24.968 78.5252 24.688C78.0212 24.4 77.6252 24 77.3372 23.488C77.0492 22.968 76.9052 22.368 76.9052 21.688C76.9052 21.016 77.0532 20.42 77.3492 19.9C77.6452 19.38 78.0492 18.98 78.5612 18.7C79.0732 18.42 79.6452 18.28 80.2772 18.28C80.9092 18.28 81.4812 18.42 81.9932 18.7C82.5052 18.98 82.9092 19.38 83.2052 19.9C83.5012 20.42 83.6492 21.016 83.6492 21.688C83.6492 22.36 83.4972 22.956 83.1932 23.476C82.8892 23.996 82.4732 24.4 81.9452 24.688C81.4252 24.968 80.8492 25.108 80.2172 25.108ZM80.2172 23.92C80.5692 23.92 80.8972 23.836 81.2012 23.668C81.5132 23.5 81.7652 23.248 81.9572 22.912C82.1492 22.576 82.2452 22.168 82.2452 21.688C82.2452 21.208 82.1532 20.804 81.9692 20.476C81.7852 20.14 81.5412 19.888 81.2372 19.72C80.9332 19.552 80.6052 19.468 80.2532 19.468C79.9012 19.468 79.5732 19.552 79.2692 19.72C78.9732 19.888 78.7372 20.14 78.5612 20.476C78.3852 20.804 78.2972 21.208 78.2972 21.688C78.2972 22.4 78.4772 22.952 78.8372 23.344C79.2052 23.728 79.6652 23.92 80.2172 23.92ZM86.5976 19.504V23.164C86.5976 23.412 86.6536 23.592 86.7656 23.704C86.8856 23.808 87.0856 23.86 87.3656 23.86H88.2056V25H87.1256C86.5096 25 86.0376 24.856 85.7096 24.568C85.3816 24.28 85.2176 23.812 85.2176 23.164V19.504H84.4376V18.388H85.2176V16.744H86.5976V18.388H88.2056V19.504H86.5976ZM92.1276 21.664C92.1276 21 92.2636 20.412 92.5356 19.9C92.8156 19.388 93.1916 18.992 93.6636 18.712C94.1436 18.424 94.6716 18.28 95.2476 18.28C95.7676 18.28 96.2196 18.384 96.6036 18.592C96.9956 18.792 97.3076 19.044 97.5396 19.348V18.388H98.9196V25H97.5396V24.016C97.3076 24.328 96.9916 24.588 96.5916 24.796C96.1916 25.004 95.7356 25.108 95.2236 25.108C94.6556 25.108 94.1356 24.964 93.6636 24.676C93.1916 24.38 92.8156 23.972 92.5356 23.452C92.2636 22.924 92.1276 22.328 92.1276 21.664ZM97.5396 21.688C97.5396 21.232 97.4436 20.836 97.2516 20.5C97.0676 20.164 96.8236 19.908 96.5196 19.732C96.2156 19.556 95.8876 19.468 95.5356 19.468C95.1836 19.468 94.8556 19.556 94.5516 19.732C94.2476 19.9 93.9996 20.152 93.8076 20.488C93.6236 20.816 93.5316 21.208 93.5316 21.664C93.5316 22.12 93.6236 22.52 93.8076 22.864C93.9996 23.208 94.2476 23.472 94.5516 23.656C94.8636 23.832 95.1916 23.92 95.5356 23.92C95.8876 23.92 96.2156 23.832 96.5196 23.656C96.8236 23.48 97.0676 23.224 97.2516 22.888C97.4436 22.544 97.5396 22.144 97.5396 21.688ZM105.202 19.348C105.402 19.012 105.666 18.752 105.994 18.568C106.33 18.376 106.726 18.28 107.182 18.28V19.696H106.834C106.298 19.696 105.89 19.832 105.61 20.104C105.338 20.376 105.202 20.848 105.202 21.52V25H103.834V18.388H105.202V19.348ZM111.307 25.108C110.683 25.108 110.119 24.968 109.615 24.688C109.111 24.4 108.715 24 108.427 23.488C108.139 22.968 107.995 22.368 107.995 21.688C107.995 21.016 108.143 20.42 108.439 19.9C108.735 19.38 109.139 18.98 109.651 18.7C110.163 18.42 110.735 18.28 111.367 18.28C111.999 18.28 112.571 18.42 113.083 18.7C113.595 18.98 113.999 19.38 114.295 19.9C114.591 20.42 114.739 21.016 114.739 21.688C114.739 22.36 114.587 22.956 114.283 23.476C113.979 23.996 113.563 24.4 113.035 24.688C112.515 24.968 111.939 25.108 111.307 25.108ZM111.307 23.92C111.659 23.92 111.987 23.836 112.291 23.668C112.603 23.5 112.855 23.248 113.047 22.912C113.239 22.576 113.335 22.168 113.335 21.688C113.335 21.208 113.243 20.804 113.059 20.476C112.875 20.14 112.631 19.888 112.327 19.72C112.023 19.552 111.695 19.468 111.343 19.468C110.991 19.468 110.663 19.552 110.359 19.72C110.063 19.888 109.827 20.14 109.651 20.476C109.475 20.804 109.387 21.208 109.387 21.688C109.387 22.4 109.567 22.952 109.927 23.344C110.295 23.728 110.755 23.92 111.307 23.92ZM117.459 19.372C117.691 19.052 118.007 18.792 118.407 18.592C118.815 18.384 119.267 18.28 119.763 18.28C120.347 18.28 120.875 18.42 121.347 18.7C121.819 18.98 122.191 19.38 122.463 19.9C122.735 20.412 122.871 21 122.871 21.664C122.871 22.328 122.735 22.924 122.463 23.452C122.191 23.972 121.815 24.38 121.335 24.676C120.863 24.964 120.339 25.108 119.763 25.108C119.251 25.108 118.795 25.008 118.395 24.808C118.003 24.608 117.691 24.352 117.459 24.04V25H116.091V16.12H117.459V19.372ZM121.479 21.664C121.479 21.208 121.383 20.816 121.191 20.488C121.007 20.152 120.759 19.9 120.447 19.732C120.143 19.556 119.815 19.468 119.463 19.468C119.119 19.468 118.791 19.556 118.479 19.732C118.175 19.908 117.927 20.164 117.735 20.5C117.551 20.836 117.459 21.232 117.459 21.688C117.459 22.144 117.551 22.544 117.735 22.888C117.927 23.224 118.175 23.48 118.479 23.656C118.791 23.832 119.119 23.92 119.463 23.92C119.815 23.92 120.143 23.832 120.447 23.656C120.759 23.472 121.007 23.208 121.191 22.864C121.383 22.52 121.479 22.12 121.479 21.664ZM127.092 25.108C126.468 25.108 125.904 24.968 125.4 24.688C124.896 24.4 124.5 24 124.212 23.488C123.924 22.968 123.78 22.368 123.78 21.688C123.78 21.016 123.928 20.42 124.224 19.9C124.52 19.38 124.924 18.98 125.436 18.7C125.948 18.42 126.52 18.28 127.152 18.28C127.784 18.28 128.356 18.42 128.868 18.7C129.38 18.98 129.784 19.38 130.08 19.9C130.376 20.42 130.524 21.016 130.524 21.688C130.524 22.36 130.372 22.956 130.068 23.476C129.764 23.996 129.348 24.4 128.82 24.688C128.3 24.968 127.724 25.108 127.092 25.108ZM127.092 23.92C127.444 23.92 127.772 23.836 128.076 23.668C128.388 23.5 128.64 23.248 128.832 22.912C129.024 22.576 129.12 22.168 129.12 21.688C129.12 21.208 129.028 20.804 128.844 20.476C128.66 20.14 128.416 19.888 128.112 19.72C127.808 19.552 127.48 19.468 127.128 19.468C126.776 19.468 126.448 19.552 126.144 19.72C125.848 19.888 125.612 20.14 125.436 20.476C125.26 20.804 125.172 21.208 125.172 21.688C125.172 22.4 125.352 22.952 125.712 23.344C126.08 23.728 126.54 23.92 127.092 23.92ZM133.473 19.504V23.164C133.473 23.412 133.529 23.592 133.641 23.704C133.761 23.808 133.961 23.86 134.241 23.86H135.081V25H134.001C133.385 25 132.913 24.856 132.585 24.568C132.257 24.28 132.093 23.812 132.093 23.164V19.504H131.313V18.388H132.093V16.744H133.473V18.388H135.081V19.504H133.473Z" fill="#4F4F4F"/>
<path d="M173.131 17.6849C173.13 17.5595 173.128 17.4348 173.122 17.3107V10.2337L171.165 12.1902C169.564 10.2302 167.128 8.97827 164.4 8.97827C161.56 8.97827 159.038 10.3336 157.443 12.4325L160.65 15.6732C160.964 15.092 161.411 14.5927 161.949 14.2157C162.509 13.7788 163.302 13.4215 164.4 13.4215C164.532 13.4215 164.635 13.437 164.71 13.4662C166.069 13.5735 167.248 14.3239 167.942 15.413L165.672 17.683C168.547 17.6717 171.795 17.6651 173.131 17.6844" fill="#1C3AA9"/>
<path d="M164.349 8.97858C164.223 8.97899 164.099 8.98189 163.974 8.98751H156.898L158.854 10.944C156.894 12.5453 155.642 14.9812 155.642 17.7097C155.642 20.5492 156.997 23.0717 159.096 24.6663L162.337 21.4594C161.756 21.1451 161.257 20.6987 160.879 20.1603C160.443 19.6005 160.085 18.8072 160.085 17.7098C160.085 17.5772 160.101 17.4749 160.13 17.3997C160.237 16.0401 160.988 14.8616 162.077 14.1676L164.347 16.4376C164.336 13.5624 164.329 10.3142 164.348 8.97883" fill="#4285F4"/>
<path d="M155.642 17.7095C155.643 17.8349 155.646 17.9596 155.651 18.0837V25.1607L157.608 23.2042C159.209 25.1642 161.645 26.4161 164.373 26.4161C167.213 26.4161 169.735 25.0608 171.33 22.9619L168.123 19.7212C167.809 20.3025 167.362 20.8017 166.824 21.1787C166.264 21.6156 165.471 21.9729 164.374 21.9729C164.241 21.9729 164.139 21.9574 164.063 21.9282C162.704 21.8209 161.525 21.0705 160.831 19.9815L163.101 17.7114C160.226 17.7227 156.978 17.7293 155.643 17.71" fill="#ABABAB"/>
<path d="M157.116 29.7975C156.903 29.7975 156.712 29.8378 156.544 29.9185C156.375 29.9973 156.232 30.1101 156.115 30.2567C155.999 30.4034 155.91 30.5813 155.848 30.7903C155.787 30.9974 155.757 31.2294 155.757 31.486V32.2258C155.757 32.4843 155.787 32.7172 155.848 32.9243C155.91 33.1315 155.998 33.3084 156.112 33.4551C156.226 33.6018 156.363 33.7145 156.524 33.7934C156.686 33.8722 156.867 33.9116 157.069 33.9116C157.276 33.9116 157.458 33.8814 157.613 33.8209C157.771 33.7604 157.903 33.6733 158.009 33.5596C158.116 33.4441 158.197 33.3048 158.254 33.1416C158.313 32.9784 158.348 32.7933 158.359 32.5861H157.85C157.837 32.7456 157.815 32.8822 157.784 32.9958C157.753 33.1077 157.707 33.2003 157.646 33.2736C157.588 33.3451 157.511 33.3983 157.415 33.4331C157.322 33.4661 157.206 33.4826 157.069 33.4826C156.922 33.4826 156.798 33.4505 156.695 33.3864C156.592 33.3204 156.509 33.2305 156.445 33.1168C156.382 33.0032 156.336 32.8702 156.307 32.7181C156.28 32.5659 156.266 32.4018 156.266 32.2258V31.4805C156.266 31.2917 156.282 31.1202 156.315 30.9662C156.35 30.8122 156.402 30.6811 156.472 30.573C156.542 30.4648 156.63 30.3814 156.736 30.3227C156.842 30.2622 156.969 30.232 157.116 30.232C157.238 30.232 157.344 30.2503 157.432 30.287C157.52 30.3218 157.593 30.3768 157.652 30.452C157.711 30.5253 157.755 30.6188 157.787 30.7325C157.818 30.8461 157.839 30.9818 157.85 31.1395H158.359C158.35 30.9231 158.316 30.7316 158.257 30.5647C158.198 30.3979 158.117 30.2576 158.012 30.1439C157.908 30.0303 157.78 29.9441 157.63 29.8854C157.481 29.8268 157.31 29.7974 157.116 29.7974L157.116 29.7975ZM169.535 29.7975C169.323 29.7975 169.132 29.8378 168.963 29.9185C168.795 29.9973 168.652 30.1101 168.534 30.2567C168.419 30.4034 168.33 30.5813 168.267 30.7903C168.207 30.9974 168.177 31.2294 168.177 31.486V32.2258C168.177 32.4843 168.207 32.7172 168.267 32.9243C168.33 33.1315 168.418 33.3084 168.531 33.4551C168.645 33.6018 168.783 33.7145 168.944 33.7934C169.105 33.8722 169.287 33.9116 169.488 33.9116C169.696 33.9116 169.877 33.8814 170.033 33.8209C170.191 33.7604 170.323 33.6733 170.429 33.5596C170.535 33.4441 170.617 33.3048 170.674 33.1416C170.732 32.9784 170.767 32.7933 170.778 32.5861H170.27C170.257 32.7456 170.235 32.8822 170.204 32.9958C170.172 33.1077 170.127 33.2003 170.066 33.2736C170.007 33.3451 169.93 33.3983 169.835 33.4331C169.742 33.4661 169.626 33.4826 169.489 33.4826C169.342 33.4826 169.217 33.4505 169.115 33.3864C169.012 33.3204 168.928 33.2305 168.864 33.1168C168.802 33.0032 168.756 32.8702 168.727 32.7181C168.699 32.5659 168.685 32.4018 168.685 32.2258V31.4805C168.685 31.2917 168.702 31.1202 168.735 30.9662C168.77 30.8122 168.822 30.6811 168.892 30.573C168.961 30.4648 169.049 30.3814 169.156 30.3227C169.262 30.2622 169.389 30.232 169.535 30.232C169.658 30.232 169.764 30.2503 169.852 30.287C169.94 30.3218 170.013 30.3768 170.072 30.452C170.13 30.5253 170.175 30.6188 170.206 30.7325C170.237 30.8461 170.259 30.9818 170.27 31.1395H170.778C170.769 30.9231 170.735 30.7316 170.677 30.5647C170.618 30.3979 170.536 30.2576 170.432 30.1439C170.327 30.0303 170.2 29.9441 170.05 29.8854C169.901 29.8268 169.73 29.7974 169.535 29.7974L169.535 29.7975ZM160.014 29.8525L158.725 33.8566H159.242L159.552 32.8116H160.905L161.222 33.8566H161.739L160.446 29.8525H160.014ZM162.283 29.8525V33.8566H162.786V32.289H163.559C163.752 32.289 163.922 32.2625 164.071 32.2093C164.219 32.1543 164.344 32.0754 164.445 31.9728C164.547 31.8701 164.624 31.7436 164.676 31.5933C164.729 31.4411 164.756 31.2688 164.756 31.0762C164.756 30.8984 164.729 30.7352 164.676 30.5867C164.624 30.4364 164.548 30.3071 164.448 30.1989C164.347 30.0889 164.221 30.0037 164.071 29.9432C163.922 29.8827 163.752 29.8524 163.559 29.8524L162.283 29.8525ZM165.141 29.8525V30.287H166.191V33.8566H166.694V30.287H167.748V29.8525H165.141ZM171.458 29.8525V33.8566H171.961V32.0058H173.572V33.8566H174.078V29.8525H173.572V31.5741H171.961V29.8525H171.458ZM175.987 29.8525L174.697 33.8566H175.214L175.525 32.8116H176.878L177.194 33.8566H177.711L176.419 29.8525H175.987ZM162.786 30.287H163.559C163.682 30.287 163.787 30.309 163.873 30.353C163.961 30.397 164.032 30.4557 164.087 30.529C164.144 30.6023 164.185 30.6876 164.211 30.7848C164.238 30.8801 164.252 30.9791 164.252 31.0818C164.252 31.1954 164.238 31.2999 164.211 31.3953C164.185 31.4888 164.144 31.5704 164.087 31.64C164.032 31.7079 163.961 31.761 163.873 31.7996C163.787 31.8381 163.682 31.8573 163.559 31.8573H162.786V30.287ZM160.229 30.5565L160.776 32.3771H159.684L160.229 30.5565ZM176.201 30.5565L176.749 32.3771H175.657L176.201 30.5565ZM152.512 30.826C152.386 30.826 152.277 30.8581 152.185 30.9223C152.095 30.9864 152.02 31.0735 151.96 31.1835L151.951 30.881H151.478V33.8566H151.965V31.728C152.011 31.6015 152.076 31.5016 152.16 31.4282C152.246 31.3549 152.356 31.3182 152.488 31.3182C152.53 31.3182 152.567 31.3201 152.6 31.3237C152.633 31.3256 152.669 31.3301 152.708 31.3374L152.705 30.8644C152.697 30.8607 152.686 30.8571 152.669 30.8534C152.654 30.8479 152.638 30.8433 152.62 30.8397C152.601 30.836 152.582 30.8332 152.562 30.8314C152.543 30.8277 152.527 30.8259 152.512 30.8259L152.512 30.826ZM154.149 30.826C154.007 30.826 153.871 30.8508 153.739 30.9003C153.607 30.9498 153.49 31.0314 153.387 31.145C153.286 31.2569 153.204 31.4035 153.142 31.5851C153.08 31.7647 153.049 31.9857 153.049 32.2478V32.5834C153.049 32.8107 153.075 33.0078 153.128 33.1746C153.182 33.3415 153.258 33.4799 153.357 33.5899C153.457 33.6981 153.579 33.7787 153.722 33.8319C153.865 33.8851 154.026 33.9117 154.204 33.9117C154.332 33.9117 154.447 33.8988 154.547 33.8732C154.65 33.8475 154.741 33.8145 154.82 33.7742C154.899 33.732 154.966 33.6843 155.023 33.6312C155.08 33.578 155.129 33.523 155.169 33.4662L154.916 33.1581C154.876 33.2076 154.833 33.2535 154.787 33.2956C154.741 33.336 154.69 33.3717 154.635 33.4029C154.58 33.4322 154.52 33.4552 154.454 33.4717C154.388 33.4881 154.314 33.4964 154.231 33.4964C154.006 33.4964 153.832 33.424 153.711 33.2791C153.592 33.1343 153.533 32.9024 153.533 32.5834V32.5146H155.194V32.2313C155.194 32.004 155.174 31.8032 155.136 31.6291C155.097 31.4549 155.036 31.3082 154.952 31.189C154.867 31.0699 154.759 30.98 154.627 30.9195C154.495 30.8572 154.336 30.826 154.149 30.826L154.149 30.826ZM154.149 31.2441C154.255 31.2441 154.343 31.2633 154.413 31.3018C154.482 31.3403 154.537 31.3944 154.578 31.4641C154.62 31.5337 154.65 31.6172 154.668 31.7143C154.689 31.8097 154.701 31.9151 154.707 32.0306V32.0966H153.535C153.543 31.9297 153.563 31.7913 153.596 31.6813C153.629 31.5713 153.672 31.4842 153.725 31.42C153.78 31.354 153.843 31.3082 153.915 31.2825C153.986 31.2569 154.064 31.244 154.149 31.244L154.149 31.2441Z" fill="#A6A6A6"/>
</g>
<rect x="2.5" y="1.5" width="194" height="39" rx="2.5" stroke="#D6D6D6"/>
</g>
<defs>
<filter id="filter0_d_14_115" x="0" y="0" width="199" height="44" filterUnits="userSpaceOnUse" color-interpolation-filters="sRGB">
<feFlood flood-opacity="0" result="BackgroundImageFix"/>
<feColorMatrix in="SourceAlpha" type="matrix" values="0 0 0 0 0 0 0 0 0 0 0 0 0 0 0 0 0 0 127 0" result="hardAlpha"/>
<feOffset dy="1"/>
<feGaussianBlur stdDeviation="1"/>
<feColorMatrix type="matrix" values="0 0 0 0 0 0 0 0 0 0 0 0 0 0 0 0 0 0 0.1 0"/>
<feBlend mode="normal" in2="BackgroundImageFix" result="effect1_dropShadow_14_115"/>
<feBlend mode="normal" in="SourceGraphic" in2="effect1_dropShadow_14_115" result="shape"/>
</filter>
<clipPath id="clip0_14_115">
<rect x="3" y="2" width="193" height="38" rx="2" fill="white"/>
</clipPath>
</defs>
</svg>
