<svg width="21" height="21" viewBox="0 0 21 21" fill="none" xmlns="http://www.w3.org/2000/svg">
<path d="M19.6885 10.7041C19.6885 9.94865 19.6259 9.3974 19.4906 8.82574H10.6885V12.2353H15.8551C15.751 13.0826 15.1885 14.3587 13.9384 15.2161L13.9209 15.3303L16.704 17.4431L16.8968 17.462C18.6676 15.8593 19.6885 13.5011 19.6885 10.7041Z" fill="#454545"/>
<path d="M10.6872 19.6875C13.2184 19.6875 15.3434 18.8708 16.8955 17.4621L13.9372 15.2162C13.1456 15.7572 12.083 16.1349 10.6872 16.1349C8.20811 16.1349 6.10396 14.5322 5.35389 12.317L5.24395 12.3262L2.3501 14.521L2.31226 14.6241C3.8539 17.6253 7.02056 19.6875 10.6872 19.6875Z" fill="#454545"/>
<path d="M5.35534 12.3171C5.15743 11.7455 5.04289 11.1329 5.04289 10.5C5.04289 9.86708 5.15743 9.25461 5.34493 8.68295L5.33969 8.5612L2.40956 6.33115L2.3137 6.37583C1.67831 7.62127 1.31372 9.01984 1.31372 10.5C1.31372 11.9802 1.67831 13.3787 2.3137 14.6242L5.35534 12.3171Z" fill="#454545"/>
<path d="M10.6873 4.86498C12.4477 4.86498 13.6352 5.61018 14.3123 6.23293L16.9581 3.70125C15.3331 2.22105 13.2185 1.3125 10.6873 1.3125C7.02059 1.3125 3.85391 3.37457 2.31226 6.37579L5.3435 8.68291C6.10398 6.4677 8.20814 4.86498 10.6873 4.86498Z" fill="#454545"/>
</svg>
